{"title":"The.River.Murders.2011.DvDRip.XviD.Ac3.Feel-Free","uid":6658697,"size":1097611264,"categoryP":"video","categoryS":"movies","magnet":"?xt=urn:btih:2ebae11841837db1f35b64a33a68890b302587c4&amp;dn=The.River.Murders.2011.DvDRip.XviD.Ac3.Feel-Free&amp;tr=udp%3A%2F%2Ftracker.openbittorrent.com%3A80&amp;tr=udp%3A%2F%2Fopen.demonii.com%3A1337&amp;tr=udp%3A%2F%2Ftracker.coppersurfer.tk%3A6969&amp;tr=udp%3A%2F%2Fexodus.desync.com%3A6969","seeders":0,"leechers":0,"uploader":"SnowCrash03","files":-1,"time":1315425061,"description":"Genre: Thriller\n Language: English\n IMDb: http://www.imdb.com/title/tt1738387/\n Source: Stein Thanks Men!\n-\n\nFormat : AVI\n Format/Info : Audio Video Interleave\n File size : 1.02 GiB\n Duration : 1h 32mn\n Overall bit rate : 1 586 Kbps\n-\n\nVideo\n ID : 0\n Format : MPEG-4 Visual\n Format profile : Advanced Simple@L5\n Format settings, BVOP : Yes\n Format settings, QPel : No\n Format settings, GMC : No warppoints\n Format settings, Matrix : Default (H.263)\n Codec ID : XVID\n Codec ID/Hint : XviD\n Duration : 1h 32mn\n Bit rate : 1 129 Kbps\n Width : 640 pixels\n Height : 344 pixels\n Display aspect ratio : 1.860\n Frame rate : 23.976 fps\n Color space : YUV\n Chroma subsampling : 4:2:0\n Bit depth : 8 bits\n Scan type : Progressive\n Bits/(Pixel*Frame) : 0.214\n Stream size : 745 MiB (71%)\n Writing library : XviD 1.2.1 (UTC 2008-12-04)\n \n\nAudio\n ID : 1\n Format : AC-3\n Format/Info : Audio Coding 3\n Mode extension : CM (complete main)\n Codec ID : 2000\n Duration : 1h 32mn\n Bit rate mode : Constant\n Bit rate : 448 Kbps\n Channel(s) : 6 channels\n Channel positions : Front: L C R, Side: L R, LFE\n Sampling rate : 48.0 KHz\n Bit depth : 16 bits\n Stream size : 296 MiB (28%)\n Alignment : Aligned on interleaves\n Interleave, duration : 42 ms (1.00 video frame)\n Interleave, preload duration : 512 ms\n \n-\n\n\nPlot:\n A homicide detective, Ray Liotta, while investigating a series of murders becomes the prime suspect when the FBI uncovers his close personal ties to all the victims.\n \n","torrent":{"xt":"urn:btih:2ebae11841837db1f35b64a33a68890b302587c4","amp;dn":"The.River.Murders.2011.DvDRip.XviD.Ac3.Feel-Free","amp;tr":["udp%3A%2F%2Ftracker.openbittorrent.com%3A80","udp%3A%2F%2Fopen.demonii.com%3A1337","udp%3A%2F%2Ftracker.coppersurfer.tk%3A6969","udp%3A%2F%2Fexodus.desync.com%3A6969"],"infoHash":"2ebae11841837db1f35b64a33a68890b302587c4","infoHashBuffer":{"type":"Buffer","data":[46,186,225,24,65,131,125,177,243,91,100,163,58,104,137,11,48,37,135,196]},"announce":[],"urlList":[]}}